<svg xmlns="http://www.w3.org/2000/svg" viewBox="0 0 78.21 129"><defs><style>.cls-1{fill:#ed7f65;}.cls-2{fill:#f8dc92;}.cls-3{fill:#fff;}.cls-4{fill:#5cbeec;}.cls-5{fill:#231f20;}.cls-6{fill:#fdc374;}.cls-7{fill:#fdc475;}.cls-8{fill:#faaf7b;}.cls-9{fill:#f19b6d;}</style></defs><title>Bird (Mouth Open)</title><g id="Layer_2" data-name="Layer 2"><g id="Layer_2-2" data-name="Layer 2"><path class="cls-1" d="M55.64,17.66a3.74,3.74,0,0,1,.38.58c-.4,0-2.34-.28-3.27-.41-4.53-.67-8.76-5.61-9-5.92.31.27,5.22,4.52,9.8,4.52h0A3.14,3.14,0,0,1,55.64,17.66Z"/><path class="cls-2" d="M53.53,16.43c-4.58,0-9.49-4.25-9.8-4.52.26.31,4.49,5.25,9,5.92.93.13,2.19.27,3.64.45-1.65,2-2.88,3.32-2.88,3.32s0,.69,0,1.57c0,1.28,0,3,0,3.56v32c0,13.51-10,23.11-23,24.9v25.74a5.16,5.16,0,0,1-5.11,5.16c-2.78,0-5-1.89-5-3.81v6.49a5.18,5.18,0,0,1-5.17,5.2c-2.76-.05-5-2.26-5-3.82v5.35A5.07,5.07,0,0,1,4.83,129,5.17,5.17,0,0,1,0,123.79V68.27C0,38.64,10.93,0,41.13,0H60.47C69.38,0,63,9.94,58,16.33,56.17,16.36,54.63,16.43,53.53,16.43Z"/><ellipse class="cls-3" cx="35.56" cy="10.22" rx="7.64" ry="6.81" transform="translate(3.19 28.14) rotate(-45)"/><circle class="cls-4" cx="36.47" cy="9.31" r="4.58"/><circle class="cls-5" cx="36.47" cy="9.31" r="3.47"/><path class="cls-6" d="M48.28,59.47c0,7.87-5.84,16.55-18.94,18.66A5.36,5.36,0,0,1,23,73V40.61a5.33,5.33,0,0,1,5.4-5.25H42.89a5.32,5.32,0,0,1,5.39,5.25Z"/><path class="cls-7" d="M7.38,85.62v37.44a2.13,2.13,0,1,1-4.25,0V85.62a2.13,2.13,0,1,1,4.25,0Z"/><path class="cls-7" d="M17.46,85.62v30.26a2.13,2.13,0,1,1-4.25,0V85.62a2.13,2.13,0,1,1,4.25,0Z"/><path class="cls-7" d="M27.26,85.36v23.29a2.13,2.13,0,0,1-4.25,0V85.36a2.13,2.13,0,1,1,4.25,0Z"/><path class="cls-8" d="M78.18,21.6C73.25,16.54,64.12,16.22,58,16.33c-1.8,0-3.34.1-4.44.1a11,11,0,0,1-4.37-1,23.36,23.36,0,0,1-5.43-3.47h0c0-5.08,4-11.9,10.79-11.9h7.26C70.68,0,78.7,8.38,78.18,21.6Z"/><path class="cls-9" d="M73.37,22.69H55.83a19.91,19.91,0,0,1-2.35-.13l-1.43-.22h0l-.45-.08-.42-.09a4.37,4.37,0,0,1-.49-.12,9.19,9.19,0,0,1-6.59-6c0-.15-.1-.3-.14-.46s-.06-.22-.08-.33-.06-.26-.08-.39a.13.13,0,0,1,0-.06,10.33,10.33,0,0,1-.16-1.4v-.05a.75.75,0,0,1,0-.15c0-.1,0-.21,0-.32,0-.49.09-1.06.12-1.36l0-.24a14.28,14.28,0,0,0,9,5.93c.93.14,2.19.27,3.64.46C62.47,18.42,69.06,16.71,73.37,22.69Z"/></g></g></svg>