<svg xmlns="http://www.w3.org/2000/svg" viewBox="0 0 78.14 129"><defs><style>.cls-1{fill:#f8dc92;}.cls-2{fill:#fff;}.cls-3{fill:#5cbeec;}.cls-4{fill:#231f20;}.cls-5{fill:#fdc374;}.cls-6{fill:#fdc475;}.cls-7{fill:#faaf7b;}.cls-8{fill:#f19b6d;}</style></defs><title>Bird (Mouth Closed)</title><g id="Layer_2" data-name="Layer 2"><g id="Layer_2-2" data-name="Layer 2"><path class="cls-1" d="M53.51,21.6s0,4.13,0,5.13v32c0,13.51-10,23.11-23,24.91v25.73a5.16,5.16,0,0,1-5.11,5.16c-2.78,0-5-1.89-5-3.82v6.5a5.18,5.18,0,0,1-5.17,5.2c-2.75-.05-5-2.27-5-3.82v5.35A5.06,5.06,0,0,1,4.83,129,5.15,5.15,0,0,1,0,123.79V68.27C0,38.65,10.94,0,41.13,0H60.47C73.61,0,53.51,21.6,53.51,21.6Z"/><ellipse class="cls-2" cx="35.56" cy="10.22" rx="7.64" ry="6.81" transform="translate(3.19 28.14) rotate(-45)"/><circle class="cls-3" cx="36.47" cy="9.31" r="4.58"/><circle class="cls-4" cx="36.47" cy="9.31" r="3.47"/><path class="cls-5" d="M48.29,59.47c0,7.87-5.84,16.55-18.95,18.66A5.36,5.36,0,0,1,23,73V40.61a5.33,5.33,0,0,1,5.4-5.25H42.89a5.33,5.33,0,0,1,5.4,5.25Z"/><path class="cls-6" d="M7.38,85.62v37.44a2.13,2.13,0,1,1-4.25,0V85.62a2.13,2.13,0,1,1,4.25,0Z"/><path class="cls-6" d="M17.46,85.62v30.26a2.13,2.13,0,1,1-4.25,0V85.62a2.13,2.13,0,1,1,4.25,0Z"/><path class="cls-6" d="M27.26,85.36v23.29a2.12,2.12,0,1,1-4.24,0V85.36a2.12,2.12,0,1,1,4.24,0Z"/><path class="cls-7" d="M78.12,21.6H53.51c-5,0-9.85-3.31-9.85-9.7,0-5.08,4-11.9,10.78-11.9H61.7C70.62,0,78.63,8.39,78.12,21.6Z"/><path class="cls-8" d="M78.12,21.6H53.53c-4.21,0-8.63-2.21-9.69-7.64a17.44,17.44,0,0,1-.18-2.06s5.07,4.53,9.8,4.53S71.74,15.06,78.12,21.6Z"/></g></g></svg>