<svg xmlns="http://www.w3.org/2000/svg" viewBox="0 0 106.56 106.56"><defs><style>.cls-1{fill:#47788d;}.cls-2{fill:#f8dc92;}.cls-3{fill:#fdc475;}.cls-4{fill:#fff;}.cls-5{fill:#5cbeec;}.cls-6{fill:#231f20;}.cls-7{fill:#faaf7b;}.cls-8{fill:#f19b6d;}.cls-9{fill:#fdc374;}.cls-10{fill:#f7dc91;}</style></defs><title>Social Icon</title><g id="Layer_2" data-name="Layer 2"><g id="Layer_2-2" data-name="Layer 2"><circle class="cls-1" cx="53.28" cy="53.28" r="53.28"/><path class="cls-2" d="M74.16,38.75c0,22-6.58,33.46-23.48,35.45l-12.19,14a3.48,3.48,0,0,1-4.87.39c-1.4-1.23-1.73-3.17-.89-4.15l-2.84,3.31a3.48,3.48,0,0,1-4.91.39C23.6,86.9,23.43,84.8,24.11,84l-2.34,2.73a3.39,3.39,0,0,1-4.92.25,3.47,3.47,0,0,1-.19-4.77l21.8-25.37Z"/><path class="cls-3" d="M37.15,66,20.75,85.09a1.43,1.43,0,0,1-2.17-1.86L35,64.14A1.43,1.43,0,1,1,37.15,66Z"/><path class="cls-3" d="M42.28,70.41,29,85.84A1.43,1.43,0,1,1,26.86,84L40.12,68.55a1.43,1.43,0,1,1,2.16,1.86Z"/><path class="cls-3" d="M47.39,74.57,37.19,86.45A1.43,1.43,0,0,1,35,84.59l10.2-11.88a1.43,1.43,0,1,1,2.16,1.86Z"/><path class="cls-2" d="M38.46,56.85c1.22-14,7.13-39.7,27.42-39.7h13c8.83,0-4.68,14.51-4.68,14.52s0,6.41,0,7.08"/><ellipse class="cls-4" cx="62.13" cy="24.02" rx="5.13" ry="4.58" transform="translate(1.22 50.97) rotate(-45)"/><circle class="cls-5" cx="62.74" cy="23.41" r="3.08"/><circle class="cls-6" cx="62.74" cy="23.41" r="2.33"/><path class="cls-7" d="M90.74,31.67H74.2a6.33,6.33,0,0,1-6.62-6.52c0-3.42,2.71-8,7.24-8H79.7C85.69,17.15,91.08,22.79,90.74,31.67Z"/><path class="cls-8" d="M90.74,31.67H74.21a6.26,6.26,0,0,1-6.51-5.14c-.06-.3-.12-1.38-.12-1.38s3.41,3,6.59,3S86.45,27.28,90.74,31.67Z"/><path class="cls-9" d="M41.38,56.35a4.48,4.48,0,0,1-2.29-.63L20.38,44.66a4.47,4.47,0,0,1-2.14-3.12,4.75,4.75,0,0,1,1-3.86c3.48-4.19,7.86-6.49,12.32-6.49a12.28,12.28,0,0,1,6.27,1.69l10.92,6.45a4.61,4.61,0,0,1,1.55,6.33l-5,8.37a4.69,4.69,0,0,1-4,2.32Z"/><path class="cls-10" d="M31.6,32.22a11.26,11.26,0,0,1,5.75,1.55l10.91,6.45a3.58,3.58,0,0,1,1.19,4.92l-5,8.37a3.64,3.64,0,0,1-3.12,1.8,3.38,3.38,0,0,1-1.76-.48L20.9,43.77a3.61,3.61,0,0,1-.83-5.43c3.64-4.37,7.8-6.12,11.53-6.12m0-2.07c-4.78,0-9.44,2.44-13.12,6.87a5.8,5.8,0,0,0-1.26,4.69,5.58,5.58,0,0,0,2.63,3.84L38.57,56.61a5.55,5.55,0,0,0,2.81.77,5.73,5.73,0,0,0,4.9-2.82l4.95-8.37a5.72,5.72,0,0,0,.65-4.27,5.49,5.49,0,0,0-2.57-3.48L38.4,32a13.36,13.36,0,0,0-6.8-1.84Z"/></g></g></svg>