<svg xmlns="http://www.w3.org/2000/svg" viewBox="0 0 111.58 107.62"><defs><style>.cls-1{fill:#f8dc92;}.cls-2{fill:#ed7f65;}.cls-3{fill:#faaf7b;}.cls-4{fill:#f19b6d;}.cls-5{fill:#fdc475;}.cls-6{fill:#fff;}.cls-7{fill:#5cbeec;}.cls-8{fill:#231f20;}.cls-9{fill:#fdc374;}.cls-10{fill:#f7dc91;}</style></defs><title>Flying Bird (Mouth Open)</title><g id="Layer_2" data-name="Layer 2"><g id="Layer_2-2" data-name="Layer 2"><path class="cls-1" d="M33.72,59.18C35.52,38.4,44.32.11,74.51.11L88.2,0C78,12.89,86.89,21.7,86.89,21.7s-.06,9.55-.06,10.55"/><path class="cls-2" d="M89,17.66a3.74,3.74,0,0,1,.38.58c-.4,0-2.34-.28-3.27-.41-4.53-.67-8.76-5.61-9-5.92.31.27,5.22,4.52,9.8,4.52h0A3.14,3.14,0,0,1,89,17.66Z"/><path class="cls-3" d="M111.56,21.6c-4.93-5.06-14.06-5.38-20.21-5.27-1.8,0-3.34.1-4.44.1a11,11,0,0,1-4.37-1,23.36,23.36,0,0,1-5.43-3.47h0c0-5.08,4-11.9,10.78-11.9h7.27C104.06,0,112.08,8.38,111.56,21.6Z"/><path class="cls-4" d="M106.75,22.69H89.21a19.91,19.91,0,0,1-2.35-.13l-1.43-.22h0L85,22.25l-.42-.09A4.37,4.37,0,0,1,84,22a9.19,9.19,0,0,1-6.59-6c0-.15-.1-.3-.14-.46s-.06-.22-.08-.33-.06-.26-.08-.39l0-.06A12.25,12.25,0,0,1,77,13.4v-.05a.75.75,0,0,1,0-.15c0-.1,0-.21,0-.32,0-.49.09-1.06.12-1.36l0-.24a14.28,14.28,0,0,0,9,5.93c.93.14,2.19.27,3.64.46C95.85,18.42,102.44,16.71,106.75,22.69Z"/><path class="cls-1" d="M86.83,32.25C86.83,64.91,77,82,51.9,85L33.76,105.82a5.16,5.16,0,0,1-7.24.58c-2.1-1.83-2.58-4.72-1.33-6.18L21,105.15a5.18,5.18,0,0,1-7.31.58c-2.05-1.84-2.3-5-1.28-6.14l-3.49,4.06a5.07,5.07,0,0,1-7.33.38,5.17,5.17,0,0,1-.27-7.1L33.72,59.18Z"/><path class="cls-5" d="M31.76,72.79,7.35,101.19a2.12,2.12,0,1,1-3.22-2.77L28.53,70a2.13,2.13,0,1,1,3.23,2.77Z"/><path class="cls-5" d="M39.4,79.36l-19.72,23a2.12,2.12,0,1,1-3.22-2.77l19.72-23a2.12,2.12,0,1,1,3.22,2.77Z"/><path class="cls-5" d="M47,85.55,31.82,103.22a2.12,2.12,0,0,1-3.22-2.77L43.78,82.78A2.12,2.12,0,1,1,47,85.55Z"/><ellipse class="cls-6" cx="68.94" cy="10.32" rx="7.64" ry="6.81" transform="translate(12.89 51.77) rotate(-45)"/><circle class="cls-7" cx="69.85" cy="9.42" r="4.58"/><circle class="cls-8" cx="69.85" cy="9.42" r="3.47"/><path class="cls-9" d="M38.05,58.43a6.69,6.69,0,0,1-3.4-.93L6.81,41a6.69,6.69,0,0,1-3.19-4.64,7.07,7.07,0,0,1,1.55-5.73C10.35,24.42,16.86,21,23.5,21a18.38,18.38,0,0,1,9.34,2.51l16.24,9.6a6.7,6.7,0,0,1,3.1,4.22,7,7,0,0,1-.79,5.21L44,55a7,7,0,0,1-6,3.45Z"/><path class="cls-10" d="M23.5,22.53a16.74,16.74,0,0,1,8.56,2.3l16.23,9.6a5.33,5.33,0,0,1,1.78,7.32L42.7,54.2a5.43,5.43,0,0,1-4.65,2.69,5.07,5.07,0,0,1-2.61-.72L7.59,39.71a5.37,5.37,0,0,1-1.24-8.07c5.41-6.5,11.61-9.11,17.15-9.11m0-3.08c-7.1,0-14,3.63-19.52,10.22a8.63,8.63,0,0,0-1.88,7A8.29,8.29,0,0,0,6,42.36L33.87,58.82A8.21,8.21,0,0,0,38.05,60a8.53,8.53,0,0,0,7.3-4.19l7.36-12.46a8.41,8.41,0,0,0-2.85-11.53l-16.24-9.6A19.94,19.94,0,0,0,23.5,19.45Z"/></g></g></svg>