<svg xmlns="http://www.w3.org/2000/svg" viewBox="0 0 111.52 107.51"><defs><style>.cls-1{fill:#f8dc92;}.cls-2{fill:#fdc475;}.cls-3{fill:#fff;}.cls-4{fill:#5cbeec;}.cls-5{fill:#231f20;}.cls-6{fill:#faaf7b;}.cls-7{fill:#f19b6d;}.cls-8{fill:#fdc374;}.cls-9{fill:#f7dc91;}</style></defs><title>Flying Bird (Mouth Closed)</title><g id="Layer_2" data-name="Layer 2"><g id="Layer_2-2" data-name="Layer 2"><path class="cls-1" d="M86.83,32.14c0,32.66-9.8,49.79-34.93,52.75L33.76,105.71a5.15,5.15,0,0,1-7.24.58c-2.1-1.82-2.58-4.71-1.33-6.17L21,105a5.18,5.18,0,0,1-7.31.58c-2.05-1.83-2.3-5-1.28-6.13l-3.49,4.05a5.07,5.07,0,0,1-7.33.38,5.15,5.15,0,0,1-.27-7.09L33.72,59.07Z"/><path class="cls-2" d="M31.76,72.68,7.35,101.08a2.12,2.12,0,1,1-3.22-2.76l24.4-28.4a2.12,2.12,0,1,1,3.23,2.76Z"/><path class="cls-2" d="M39.4,79.25l-19.72,23a2.12,2.12,0,1,1-3.22-2.76l19.72-23a2.12,2.12,0,0,1,3.22,2.77Z"/><path class="cls-2" d="M47,85.44,31.82,103.11a2.12,2.12,0,0,1-3.22-2.77L43.78,82.68A2.12,2.12,0,1,1,47,85.44Z"/><path class="cls-1" d="M33.72,59.07C35.52,38.29,44.32,0,74.51,0H93.85c13.14,0-7,21.6-7,21.6s-.06,9.55-.06,10.54"/><ellipse class="cls-3" cx="68.94" cy="10.22" rx="7.64" ry="6.81" transform="translate(12.97 51.74) rotate(-45)"/><circle class="cls-4" cx="69.85" cy="9.31" r="4.58"/><circle class="cls-5" cx="69.85" cy="9.31" r="3.47"/><path class="cls-6" d="M111.5,21.6H86.89c-5,0-9.86-3.31-9.86-9.7C77,6.82,81.07,0,87.82,0h7.26C104,0,112,8.39,111.5,21.6Z"/><path class="cls-7" d="M111.5,21.6H86.9c-4.2,0-8.63-2.21-9.68-7.64-.09-.44-.17-2.06-.17-2.06s5.06,4.53,9.79,4.53S105.12,15.06,111.5,21.6Z"/><path class="cls-8" d="M38.05,58.32a6.69,6.69,0,0,1-3.4-.93L6.81,40.93a6.71,6.71,0,0,1-3.19-4.64,7.08,7.08,0,0,1,1.55-5.74c5.18-6.23,11.69-9.66,18.33-9.66a18.28,18.28,0,0,1,9.34,2.51L49.08,33a6.68,6.68,0,0,1,3.1,4.21,7,7,0,0,1-.79,5.21L44,54.88a7,7,0,0,1-6,3.44Z"/><path class="cls-9" d="M23.5,22.42a16.84,16.84,0,0,1,8.56,2.3l16.23,9.6a5.33,5.33,0,0,1,1.78,7.32L42.7,54.1a5.42,5.42,0,0,1-4.65,2.68,5.15,5.15,0,0,1-2.61-.71L7.59,39.6a5.35,5.35,0,0,1-1.24-8.06C11.76,25,18,22.42,23.5,22.42m0-3.07C16.4,19.35,9.46,23,4,29.57a8.62,8.62,0,0,0-1.88,7A8.29,8.29,0,0,0,6,42.25L33.87,58.72a8.31,8.31,0,0,0,4.18,1.14,8.53,8.53,0,0,0,7.3-4.2L52.71,43.2a8.39,8.39,0,0,0-2.85-11.52L33.62,22.07A19.93,19.93,0,0,0,23.5,19.35Z"/></g></g></svg>