<svg id="Group_136" data-name="Group 136" xmlns="http://www.w3.org/2000/svg" width="55.501" height="94.129" viewBox="0 0 55.501 94.129">
  <path id="Path_4" data-name="Path 4" d="M66.574,417.27c0,17.285,12.833,36.357,41.628,40.994A11.786,11.786,0,0,0,122.075,446.9v-71.07A11.7,11.7,0,0,0,110.218,364.3H78.431a11.7,11.7,0,0,0-11.857,11.532Z" transform="translate(-66.574 -364.296)" fill="#ffb45e"/>
  <g id="Group_37" data-name="Group 37" transform="translate(15.724 8.335)">
    <g id="Group_35" data-name="Group 35">
      <path id="Path_5" data-name="Path 5" d="M80.563,391.417h-3.4V386.57h3.4v-6.135a10.346,10.346,0,0,1,3.034-7.423,10.236,10.236,0,0,1,14.679,0q.4.4,1.088,1.222L96,377.564q-.726-.922-1.023-1.219a5.439,5.439,0,0,0-4.024-1.715,5.368,5.368,0,0,0-4.023,1.715,5.713,5.713,0,0,0-1.683,4.157v6.069h3.892v4.847H85.246l-.033,43.868H80.563Z" transform="translate(-77.166 -369.911)" fill="#fff"/>
    </g>
    <g id="Group_36" data-name="Group 36" transform="translate(18.895 12.036)">
      <path id="Path_6" data-name="Path 6" d="M94.677,431.359H89.894V378.019h4.783Z" transform="translate(-89.894 -378.019)" fill="#fff"/>
    </g>
  </g>
</svg>
