<svg xmlns="http://www.w3.org/2000/svg" viewBox="0 0 67.71 7.84"><defs><style>.cls-1{fill:#fff;}</style></defs><title>Tagline plain (White)</title><g id="Layer_2" data-name="Layer 2"><g id="Layer_2-2" data-name="Layer 2"><path class="cls-1" d="M3.25,4.87A1.56,1.56,0,0,1,1.68,6.19C.58,6.19,0,5.43,0,4,0,2.91.52,1.88,1.7,1.88A1.46,1.46,0,0,1,3.24,3.26H2.82a1.11,1.11,0,0,0-1.13-1C.82,2.26.43,3,.43,4S.87,5.81,1.69,5.81a1.13,1.13,0,0,0,1.14-.94Z"/><path class="cls-1" d="M4.57,3.37c0-.64,0-1.25,0-1.4H5c0,.2,0,.47,0,.91a1.48,1.48,0,0,1,1.39-1v.45A1.45,1.45,0,0,0,5,4V6.11H4.57Z"/><path class="cls-1" d="M10.08,5.29a4.47,4.47,0,0,0,.07.82h-.4a5.14,5.14,0,0,1-.05-.74,1.25,1.25,0,0,1-1.32.81A1.17,1.17,0,0,1,7.11,4.93c0-.54.32-1.29,1.84-1.29h.73V3.18c0-.43-.12-.93-1-.93s-1,.3-1,.85H7.27A1.27,1.27,0,0,1,8.74,1.88c.79,0,1.34.36,1.34,1.25ZM9.69,4H8.93c-1.17,0-1.4.48-1.4.92a.83.83,0,0,0,.89.88c.92,0,1.27-.63,1.27-1.72Z"/><path class="cls-1" d="M11.29,5.74c.71-1,1.6-2.28,2.4-3.39H11.42V2h2.75v.38c-.79,1.1-1.59,2.25-2.4,3.37h2.46l-.09.39H11.29Z"/><path class="cls-1" d="M15.59,2c.75,2.16,1.12,3.2,1.25,3.71h0c.13-.42.5-1.57,1.21-3.71h.44L17,6.3c-.41,1.21-.64,1.54-1.39,1.54l-.32,0V7.43a1.65,1.65,0,0,0,.34,0c.6,0,.73-.52,1-1.27L15.15,2Z"/><path class="cls-1" d="M22.49,5a1,1,0,0,0,1.08.86c.69,0,.93-.41.93-.82s-.28-.69-1-.89c-.95-.25-1.22-.61-1.22-1.14a1.12,1.12,0,0,1,1.27-1.09A1.19,1.19,0,0,1,24.85,3h-.41a.87.87,0,0,0-.94-.79c-.58,0-.83.29-.83.7s.15.58.92.78c1,.28,1.33.6,1.33,1.26a1.22,1.22,0,0,1-1.37,1.2A1.32,1.32,0,0,1,22.08,5Z"/><path class="cls-1" d="M26.29,2h.4V6.11h-.4Z"/><path class="cls-1" d="M28.4,3.26c0-.69,0-1.11,0-1.29h.4c0,.1,0,.51,0,.65A1.21,1.21,0,0,1,30,1.88a1,1,0,0,1,1.07.76,1.28,1.28,0,0,1,1.22-.76c.58,0,1.19.29,1.19,1.39V6.11h-.41V3.35c0-.59-.18-1.08-.86-1.08s-1,.66-1,1.35V6.11h-.4V3.31c0-.6-.23-1-.84-1s-1.09.54-1.09,1.43v2.4H28.4Z"/><path class="cls-1" d="M35.58,5.51V7.78h-.41V3.2c0-.57,0-1,0-1.23h.41c0,.14,0,.5,0,.74a1.4,1.4,0,0,1,1.35-.83c.93,0,1.53.75,1.53,2.07s-.73,2.22-1.68,2.22A1.23,1.23,0,0,1,35.58,5.51ZM38,4c0-1.07-.43-1.71-1.21-1.71-1,0-1.26.73-1.26,1.78s.16,1.74,1.21,1.74C37.55,5.79,38,5.12,38,4Z"/><path class="cls-1" d="M39.87,6.11v-6h.4v6Z"/><path class="cls-1" d="M42.1,4.09c0,1,.45,1.72,1.26,1.72A1.12,1.12,0,0,0,44.47,5h.4a1.48,1.48,0,0,1-1.54,1.19c-1.28,0-1.65-1.1-1.65-2.18s.49-2.13,1.68-2.13S45,2.91,45,3.79v.3Zm2.43-.36c0-.86-.36-1.47-1.19-1.47s-1.17.9-1.22,1.47Z"/><path class="cls-1" d="M48.86,6.11V2.33h-.68V2h.68V1.36c0-.68.17-1.36,1-1.36a1,1,0,0,1,.34.05V.43a1.59,1.59,0,0,0-.37,0c-.42,0-.59.28-.59.9V2h.83v.36h-.83V6.11Z"/><path class="cls-1" d="M54.27,4c0,1.19-.49,2.21-1.76,2.21s-1.7-1-1.7-2.19.61-2.1,1.75-2.1S54.27,2.72,54.27,4Zm-3,0c0,1,.45,1.81,1.31,1.81S53.83,5,53.83,4s-.43-1.7-1.3-1.7S51.24,3,51.24,4Z"/><path class="cls-1" d="M55.68,3.37c0-.64,0-1.25,0-1.4h.4c0,.2,0,.47,0,.91a1.48,1.48,0,0,1,1.4-1v.45A1.46,1.46,0,0,0,56.08,4V6.11h-.4Z"/><path class="cls-1" d="M58.56,3.26c0-.69,0-1.11,0-1.29H59c0,.1,0,.51,0,.65a1.21,1.21,0,0,1,1.17-.74,1,1,0,0,1,1.07.76,1.28,1.28,0,0,1,1.22-.76c.58,0,1.19.29,1.19,1.39V6.11h-.41V3.35c0-.59-.18-1.08-.86-1.08s-1.05.66-1.05,1.35V6.11h-.4V3.31c0-.6-.23-1-.84-1S59,2.82,59,3.71v2.4h-.41Z"/><path class="cls-1" d="M65.28,5a1,1,0,0,0,1.08.86c.69,0,.93-.41.93-.82s-.28-.69-1-.89C65.31,3.86,65,3.5,65,3a1.12,1.12,0,0,1,1.27-1.09A1.19,1.19,0,0,1,67.64,3h-.41a.87.87,0,0,0-.94-.79c-.58,0-.83.29-.83.7s.15.58.92.78c1,.28,1.33.6,1.33,1.26a1.22,1.22,0,0,1-1.37,1.2A1.32,1.32,0,0,1,64.87,5Z"/><path class="cls-1" d="M26.71.88a.29.29,0,0,1,.09.22.31.31,0,1,1-.62,0,.31.31,0,0,1,.53-.22Z"/></g></g></svg>