<svg xmlns="http://www.w3.org/2000/svg" viewBox="0 0 156.65 25.99"><defs><style>.cls-1{fill:#fff;}</style></defs><title>Wordmark plain (White)</title><g id="Layer_2" data-name="Layer 2"><g id="Layer_2-2" data-name="Layer 2"><path class="cls-1" d="M87.31,24.36v1.41s-3.92.49-4.54-2.91a13.55,13.55,0,0,1-.2-3.12V0H84V19.68s0,1.82,0,2.12A2.82,2.82,0,0,0,87.31,24.36Z"/><path class="cls-1" d="M1.57,7.68a8.12,8.12,0,0,0-.14,1.5l0,16.58L0,25.74V9.18A9.6,9.6,0,0,1,2.44,2.69,7.48,7.48,0,0,1,8.19,0h.09V1.45H8.19A6,6,0,0,0,3.45,3.82,7.79,7.79,0,0,0,2,6.26H8.28V7.68Z"/><path class="cls-1" d="M20.3,6a9.68,9.68,0,0,1,7.08,2.93A9.67,9.67,0,0,1,30.3,16,9.61,9.61,0,0,1,27.36,23,9.6,9.6,0,0,1,20.29,26,9.6,9.6,0,0,1,13.22,23,9.61,9.61,0,0,1,10.28,16a9.7,9.7,0,0,1,3-7.08A9.64,9.64,0,0,1,20.3,6Zm0,18.6A8.57,8.57,0,0,0,28.88,16a8.57,8.57,0,0,0-8.59-8.6A8.57,8.57,0,0,0,11.7,16a8.57,8.57,0,0,0,8.59,8.59Z"/><path class="cls-1" d="M44.33,7.44a8.19,8.19,0,0,0-.87,0,8,8,0,0,0-8,8V25.73H34V15.42a9.17,9.17,0,0,1,2.77-6.74,9.18,9.18,0,0,1,6.72-2.77,8.7,8.7,0,0,1,.89,0Z"/><path class="cls-1" d="M75.9,25.74H74.54V13.26a5.71,5.71,0,0,0-1.79-4.14,6,6,0,0,0-8.45,0,5.75,5.75,0,0,0-1.79,4.14V25.74H61.14V13.26a5.71,5.71,0,0,0-1.79-4.14,6,6,0,0,0-8.43,0,5.6,5.6,0,0,0-1.79,4.14V25.74H47.75V13.26A7,7,0,0,1,50,8.16a7.17,7.17,0,0,1,5.18-2.1,7.35,7.35,0,0,1,6.7,4.25,7.11,7.11,0,0,1,2.68-3.07,7.47,7.47,0,0,1,9.22.92,7,7,0,0,1,2.17,5.15Z"/><path class="cls-1" d="M100.64,6a9.68,9.68,0,0,1,7.08,2.93A9.67,9.67,0,0,1,110.64,16,9.61,9.61,0,0,1,107.7,23a10,10,0,0,1-14.14,0A9.61,9.61,0,0,1,90.62,16a9.7,9.7,0,0,1,2.95-7.08A9.64,9.64,0,0,1,100.64,6Zm0,18.6A8.57,8.57,0,0,0,109.22,16,8.6,8.6,0,1,0,92,16a8.59,8.59,0,0,0,8.6,8.59Z"/><path class="cls-1" d="M129.89,22.06A8.31,8.31,0,0,0,132,18.67h1.46a9.57,9.57,0,0,1-2.58,4.38,10,10,0,0,1-14.14,0A9.64,9.64,0,0,1,113.8,16a9.64,9.64,0,0,1,3-7.07,10,10,0,0,1,14.14,0,9.69,9.69,0,0,1,2.58,4.38H132a8.44,8.44,0,0,0-2.11-3.39,8.62,8.62,0,0,0-12.16,0A8.28,8.28,0,0,0,115.22,16a8.28,8.28,0,0,0,2.51,6.08,8.62,8.62,0,0,0,12.16,0Z"/><path class="cls-1" d="M146.65,6a9.68,9.68,0,0,1,7.08,2.93A9.67,9.67,0,0,1,156.65,16,9.61,9.61,0,0,1,153.71,23a10,10,0,0,1-14.14,0A9.61,9.61,0,0,1,136.63,16a9.7,9.7,0,0,1,3-7.08A9.64,9.64,0,0,1,146.65,6Zm0,18.6A8.57,8.57,0,0,0,155.23,16a8.59,8.59,0,1,0-17.18,0,8.57,8.57,0,0,0,8.59,8.59Z"/></g></g></svg>