<svg id="footerlogo" xmlns="http://www.w3.org/2000/svg" width="320.359" height="76.883" viewBox="0 0 320.359 76.883">
  <g id="Group_38" data-name="Group 38">
    <path id="Path_4" data-name="Path 4" d="M66.574,407.565c0,14.119,10.482,29.7,34,33.484a9.627,9.627,0,0,0,11.331-9.284V373.715a9.555,9.555,0,0,0-9.684-9.419H76.258a9.555,9.555,0,0,0-9.684,9.419Z" transform="translate(-66.574 -364.296)" fill="#ffb45e"/>
    <g id="Group_37" data-name="Group 37" transform="translate(12.843 6.808)">
      <g id="Group_35" data-name="Group 35">
        <path id="Path_5" data-name="Path 5" d="M79.94,387.477H77.166v-3.959H79.94v-5.011a8.451,8.451,0,0,1,2.478-6.063,8.36,8.36,0,0,1,11.989,0q.324.324.889,1l-2.748,2.72q-.593-.753-.835-1a4.442,4.442,0,0,0-3.287-1.4,4.385,4.385,0,0,0-3.286,1.4,4.666,4.666,0,0,0-1.375,3.4v4.957h3.179v3.959H83.766l-.027,35.831h-3.8Z" transform="translate(-77.166 -369.911)" fill="#fff"/>
      </g>
      <g id="Group_36" data-name="Group 36" transform="translate(15.433 9.831)">
        <path id="Path_6" data-name="Path 6" d="M93.8,421.586H89.894V378.019H93.8Z" transform="translate(-89.894 -378.019)" fill="#fff"/>
      </g>
    </g>
  </g>
  <g id="Group_41" data-name="Group 41" transform="translate(70.692 4.706)">
    <g id="Group_39" data-name="Group 39">
      <path id="Path_7" data-name="Path 7" d="M127.478,380.876a14.618,14.618,0,0,0-.246,2.469l.045,27.394-2.4-.022V383.344a15.864,15.864,0,0,1,4.039-10.725,12.308,12.308,0,0,1,9.49-4.443h.156v2.4h-.156a10.011,10.011,0,0,0-7.83,3.9,13.442,13.442,0,0,0-2.446,4.039h10.432v2.355Z" transform="translate(-124.876 -368.177)" fill="#fff"/>
      <path id="Path_8" data-name="Path 8" d="M167.138,381.146a16.539,16.539,0,1,1-28.247,11.69,16.547,16.547,0,0,1,28.247-11.69Zm-1.66,21.74a14.244,14.244,0,1,0-10.052,4.152A13.752,13.752,0,0,0,165.478,402.887Z" transform="translate(-121.898 -366.451)" fill="#fff"/>
      <path id="Path_9" data-name="Path 9" d="M188.291,378.761c-.47-.045-.942-.067-1.436-.067a13.215,13.215,0,0,0-13.237,13.26v17.029H171.15V391.955a15.628,15.628,0,0,1,15.684-15.729c.493,0,.987.023,1.457.068Z" transform="translate(-115.042 -366.466)" fill="#fff"/>
      <path id="Path_10" data-name="Path 10" d="M236.468,408.963h-2.243V388.344a9.458,9.458,0,0,0-2.962-6.843,9.968,9.968,0,0,0-13.955,0,9.463,9.463,0,0,0-2.962,6.843v20.619H212.08V388.344a9.463,9.463,0,0,0-2.962-6.843,9.941,9.941,0,0,0-13.933,0,9.285,9.285,0,0,0-2.961,6.843v20.619h-2.266V388.344a11.577,11.577,0,0,1,3.634-8.437,11.845,11.845,0,0,1,8.548-3.478,12.178,12.178,0,0,1,11.084,7.023,11.791,11.791,0,0,1,4.42-5.071,12.039,12.039,0,0,1,6.642-1.952,11.91,11.91,0,0,1,8.593,3.478,11.631,11.631,0,0,1,3.589,8.5Z" transform="translate(-111.045 -366.423)" fill="#fff"/>
      <path id="Path_11" data-name="Path 11" d="M236.268,410.108h-2.356V371.045h2.356Z" transform="translate(-101.704 -367.567)" fill="#fff"/>
      <path id="Path_12" data-name="Path 12" d="M269.05,381.146a16.539,16.539,0,1,1-28.247,11.69,16.547,16.547,0,0,1,28.247-11.69Zm-1.66,21.74a14.244,14.244,0,1,0-10.052,4.152A13.752,13.752,0,0,0,267.39,402.887Z" transform="translate(-100.239 -366.451)" fill="#fff"/>
      <path id="Path_13" data-name="Path 13" d="M298.983,402.906a13.935,13.935,0,0,0,3.478-5.609h2.424a16.137,16.137,0,0,1-4.263,7.247,16.433,16.433,0,1,1,4.285-16.131H302.46a14.083,14.083,0,0,0-3.478-5.609,14.2,14.2,0,1,0,0,20.1Z" transform="translate(-93.525 -366.447)" fill="#fff"/>
      <path id="Path_14" data-name="Path 14" d="M331.756,381.146a16.539,16.539,0,1,1-28.248,11.69,16.547,16.547,0,0,1,28.248-11.69Zm-1.66,21.74a14.244,14.244,0,1,0-10.052,4.152A13.757,13.757,0,0,0,330.1,402.887Z" transform="translate(-86.913 -366.451)" fill="#fff"/>
    </g>
    <g id="Group_40" data-name="Group 40" transform="translate(0.831 50.046)">
      <path id="Path_15" data-name="Path 15" d="M132.775,419.532a3.43,3.43,0,0,1-3.49,2.934c-2.436,0-3.725-1.693-3.725-4.819,0-2.475,1.151-4.747,3.782-4.747a3.248,3.248,0,0,1,3.414,3.063h-.935a2.448,2.448,0,0,0-2.5-2.23c-1.935,0-2.811,1.662-2.811,3.931,0,2.494.987,3.97,2.809,3.97a2.528,2.528,0,0,0,2.517-2.1Z" transform="translate(-125.561 -408.718)" fill="#fff"/>
      <path id="Path_16" data-name="Path 16" d="M133.948,416.212c0-1.437-.018-2.789-.038-3.127h.9c.021.458.021,1.048.021,2.032a3.263,3.263,0,0,1,3.1-2.215v.989c-2.183.144-3.083,1.74-3.083,3.64v4.752h-.9Z" transform="translate(-123.787 -408.718)" fill="#fff"/>
      <path id="Path_17" data-name="Path 17" d="M145.2,420.467a11.467,11.467,0,0,0,.147,1.816h-.875a9.159,9.159,0,0,1-.129-1.625,2.772,2.772,0,0,1-2.917,1.791,2.6,2.6,0,0,1-2.84-2.779c0-1.206.728-2.856,4.09-2.856H144.3v-1.04c0-.952-.257-2.062-2.134-2.062a2,2,0,0,0-2.316,1.9h-.9c.164-1.6,1.065-2.71,3.269-2.71,1.757,0,2.977.791,2.977,2.766Zm-.879-2.862h-1.681c-2.607,0-3.1,1.059-3.1,2.043a1.833,1.833,0,0,0,1.972,1.951c2.047,0,2.809-1.388,2.809-3.81Z" transform="translate(-122.794 -408.718)" fill="#fff"/>
      <path id="Path_18" data-name="Path 18" d="M146.242,421.438c1.58-2.144,3.558-5.066,5.333-7.533h-5.039v-.851h6.107v.851c-1.74,2.448-3.52,5.011-5.331,7.5h5.481l-.2.851h-6.346Z" transform="translate(-121.166 -408.685)" fill="#fff"/>
      <path id="Path_19" data-name="Path 19" d="M154.308,413.053c1.66,4.817,2.483,7.114,2.774,8.252h.018c.293-.925,1.1-3.479,2.684-8.252h.972l-3.273,9.621c-.92,2.692-1.431,3.437-3.1,3.437a4.15,4.15,0,0,1-.7-.057V425.2a4.626,4.626,0,0,0,.757.055c1.33,0,1.627-1.145,2.208-2.815l-3.328-9.388Z" transform="translate(-119.663 -408.685)" fill="#fff"/>
      <path id="Path_20" data-name="Path 20" d="M166.935,419.738a2.248,2.248,0,0,0,2.391,1.917c1.548,0,2.079-.907,2.079-1.82,0-.985-.622-1.547-2.29-1.987-2.106-.555-2.711-1.348-2.711-2.528,0-1.25.9-2.419,2.812-2.419a2.638,2.638,0,0,1,2.957,2.545h-.9a1.931,1.931,0,0,0-2.1-1.75c-1.291,0-1.839.654-1.839,1.564,0,.82.332,1.276,2.033,1.733,2.233.607,2.971,1.329,2.971,2.783,0,1.59-1.205,2.674-3.053,2.674a2.953,2.953,0,0,1-3.27-2.711Z" transform="translate(-116.963 -408.718)" fill="#fff"/>
      <path id="Path_21" data-name="Path 21" d="M173.731,409.587h.9v1.776h-.9Zm0,4.2h.9v9.2h-.9Z" transform="translate(-115.324 -409.422)" fill="#fff"/>
      <path id="Path_22" data-name="Path 22" d="M177.617,415.954c0-1.514-.018-2.464-.036-2.869h.9c.019.222.056,1.149.038,1.444a2.723,2.723,0,0,1,2.594-1.628,2.239,2.239,0,0,1,2.389,1.688A2.841,2.841,0,0,1,186.2,412.9c1.294,0,2.637.648,2.637,3.093v6.289h-.9v-6.118c0-1.313-.4-2.392-1.917-2.392-1.644,0-2.338,1.456-2.338,3v5.512h-.88v-6.21c0-1.33-.513-2.3-1.865-2.3-1.461,0-2.427,1.22-2.427,3.18v5.33h-.9Z" transform="translate(-114.506 -408.718)" fill="#fff"/>
      <path id="Path_23" data-name="Path 23" d="M190.916,420.972V426h-.9V415.824c0-1.268,0-2.186-.036-2.739h.9c.018.33.036,1.113.038,1.664a3.1,3.1,0,0,1,3.008-1.848c2.058,0,3.406,1.67,3.406,4.6,0,3.161-1.621,4.929-3.739,4.929A2.755,2.755,0,0,1,190.916,420.972Zm5.459-3.414c0-2.364-.97-3.8-2.686-3.8-2.173,0-2.812,1.619-2.812,3.966,0,2.2.369,3.858,2.7,3.858C195.3,421.579,196.375,420.1,196.375,417.557Z" transform="translate(-111.871 -408.718)" fill="#fff"/>
      <path id="Path_24" data-name="Path 24" d="M198.62,422.988v-13.4h.9v13.4Z" transform="translate(-110.035 -409.422)" fill="#fff"/>
      <path id="Path_25" data-name="Path 25" d="M202.878,417.8c-.017,2.31,1,3.829,2.792,3.829a2.484,2.484,0,0,0,2.463-1.805h.9a3.3,3.3,0,0,1-3.436,2.638c-2.836,0-3.655-2.436-3.655-4.836,0-2.246,1.088-4.73,3.73-4.73,2.749,0,3.525,2.28,3.525,4.24v.663Zm5.4-.791c-.055-1.911-.818-3.281-2.646-3.281-2.117,0-2.611,2-2.718,3.281Z" transform="translate(-109.329 -408.718)" fill="#fff"/>
      <path id="Path_26" data-name="Path 26" d="M215.366,423.017v-8.382h-1.52v-.816h1.52v-1.35c0-1.516.38-3.018,2.276-3.018a2.159,2.159,0,0,1,.76.112v.852a3.023,3.023,0,0,0-.823-.091c-.931,0-1.313.621-1.313,1.984v1.511h1.85v.816h-1.85v8.382Z" transform="translate(-106.799 -409.451)" fill="#fff"/>
      <path id="Path_27" data-name="Path 27" d="M226.354,417.52c0,2.651-1.09,4.912-3.912,4.912-2.626,0-3.766-2.318-3.766-4.874,0-2.5,1.342-4.656,3.876-4.656C224.92,412.9,226.354,414.766,226.354,417.52Zm-6.723.053c0,2.22.987,4.026,2.9,4.026,2.059,0,2.848-1.75,2.848-4.078,0-2.11-.968-3.786-2.886-3.786C220.6,413.735,219.63,415.359,219.63,417.573Z" transform="translate(-105.772 -408.718)" fill="#fff"/>
      <path id="Path_28" data-name="Path 28" d="M227.593,416.212c0-1.437-.018-2.789-.036-3.127h.9c.019.458.019,1.048.019,2.032a3.263,3.263,0,0,1,3.1-2.215v.989c-2.183.144-3.082,1.74-3.082,3.64v4.752h-.9Z" transform="translate(-103.885 -408.718)" fill="#fff"/>
      <path id="Path_29" data-name="Path 29" d="M232.885,415.954c0-1.514-.019-2.464-.038-2.869h.9c.018.222.055,1.149.038,1.444a2.722,2.722,0,0,1,2.594-1.628,2.24,2.24,0,0,1,2.389,1.688,2.839,2.839,0,0,1,2.706-1.688c1.294,0,2.637.648,2.637,3.093v6.289h-.9v-6.118c0-1.313-.4-2.392-1.918-2.392-1.644,0-2.338,1.456-2.338,3v5.512h-.88v-6.21c0-1.33-.513-2.3-1.864-2.3-1.462,0-2.427,1.22-2.427,3.18v5.33h-.9Z" transform="translate(-102.761 -408.718)" fill="#fff"/>
      <path id="Path_30" data-name="Path 30" d="M245.348,419.738a2.246,2.246,0,0,0,2.391,1.917c1.548,0,2.079-.907,2.079-1.82,0-.985-.623-1.547-2.292-1.987-2.1-.555-2.711-1.348-2.711-2.528,0-1.25.9-2.419,2.812-2.419a2.638,2.638,0,0,1,2.959,2.545h-.9a1.931,1.931,0,0,0-2.1-1.75c-1.291,0-1.838.654-1.838,1.564,0,.82.332,1.276,2.033,1.733,2.233.607,2.969,1.329,2.969,2.783,0,1.59-1.205,2.674-3.052,2.674a2.952,2.952,0,0,1-3.27-2.711Z" transform="translate(-100.299 -408.718)" fill="#fff"/>
    </g>
  </g>
</svg>
