<svg id="formlocologo" xmlns="http://www.w3.org/2000/svg" width="311.195" height="74.684" viewBox="0 0 311.195 74.684">
  <defs>
    <style>
      .cls-1 {
        fill: #ffb45e;
      }

      .cls-2 {
        fill: #fff;
      }

      .cls-3 {
        fill: #1a1818;
      }
    </style>
  </defs>
  <g id="Group_38" data-name="Group 38">
    <path id="Path_4" data-name="Path 4" class="cls-1" d="M66.574,406.327c0,13.715,10.182,28.846,33.029,32.526a9.351,9.351,0,0,0,11.007-9.019V373.445a9.281,9.281,0,0,0-9.407-9.15H75.981a9.281,9.281,0,0,0-9.407,9.15Z" transform="translate(-66.574 -364.296)"/>
    <g id="Group_37" data-name="Group 37" transform="translate(12.476 6.614)">
      <g id="Group_35" data-name="Group 35">
        <path id="Path_5" data-name="Path 5" class="cls-2" d="M79.861,386.974H77.166v-3.846h2.695v-4.868a8.209,8.209,0,0,1,2.408-5.889,8.121,8.121,0,0,1,11.646,0q.315.314.863.969l-2.669,2.642q-.576-.731-.812-.967a4.315,4.315,0,0,0-3.193-1.36,4.259,4.259,0,0,0-3.192,1.36,4.533,4.533,0,0,0-1.336,3.3v4.815h3.088v3.846H83.577l-.026,34.806h-3.69Z" transform="translate(-77.166 -369.911)"/>
      </g>
      <g id="Group_36" data-name="Group 36" transform="translate(14.992 9.55)">
        <path id="Path_6" data-name="Path 6" class="cls-2" d="M93.689,420.34H89.894V378.019h3.795Z" transform="translate(-89.894 -378.019)"/>
      </g>
    </g>
  </g>
  <g id="Group_41" data-name="Group 41" transform="translate(68.67 4.571)">
    <g id="Group_39" data-name="Group 39">
      <path id="Path_7" data-name="Path 7" class="cls-3" d="M127.4,380.512a14.2,14.2,0,0,0-.239,2.4l.044,26.611-2.332-.021v-26.59a15.41,15.41,0,0,1,3.923-10.418,11.956,11.956,0,0,1,9.219-4.316h.152v2.332h-.152a9.724,9.724,0,0,0-7.606,3.793,13.058,13.058,0,0,0-2.376,3.923H138.17v2.287Z" transform="translate(-124.876 -368.177)"/>
      <path id="Path_8" data-name="Path 8" class="cls-3" d="M166.33,381.008a16.066,16.066,0,1,1-27.439,11.356,16.073,16.073,0,0,1,27.439-11.356Zm-1.612,21.119a13.837,13.837,0,1,0-9.764,4.033A13.359,13.359,0,0,0,164.717,402.126Z" transform="translate(-122.384 -366.732)"/>
      <path id="Path_9" data-name="Path 9" class="cls-3" d="M187.8,378.689c-.457-.044-.915-.065-1.395-.065A12.837,12.837,0,0,0,173.548,391.5v16.542h-2.4V391.5a15.181,15.181,0,0,1,15.235-15.279c.479,0,.959.022,1.416.066Z" transform="translate(-116.647 -366.746)"/>
      <path id="Path_10" data-name="Path 10" class="cls-3" d="M235.137,408.033h-2.179V388a9.188,9.188,0,0,0-2.877-6.648,9.682,9.682,0,0,0-13.556,0A9.192,9.192,0,0,0,213.648,388v20.029h-2.2V388a9.192,9.192,0,0,0-2.877-6.648,9.656,9.656,0,0,0-13.535,0A9.02,9.02,0,0,0,192.159,388v20.029h-2.2V388a11.246,11.246,0,0,1,3.53-8.2,11.506,11.506,0,0,1,8.3-3.378,11.83,11.83,0,0,1,10.767,6.822,11.453,11.453,0,0,1,4.293-4.926,11.7,11.7,0,0,1,6.452-1.9,11.569,11.569,0,0,1,8.347,3.378,11.3,11.3,0,0,1,3.486,8.26Z" transform="translate(-113.302 -366.709)"/>
      <path id="Path_11" data-name="Path 11" class="cls-3" d="M236.2,408.99h-2.289V371.045H236.2Z" transform="translate(-105.485 -367.667)"/>
      <path id="Path_12" data-name="Path 12" class="cls-3" d="M268.242,381.008A16.066,16.066,0,1,1,240.8,392.363a16.073,16.073,0,0,1,27.439-11.356Zm-1.612,21.119a13.837,13.837,0,1,0-9.764,4.033A13.359,13.359,0,0,0,266.629,402.126Z" transform="translate(-104.26 -366.732)"/>
      <path id="Path_13" data-name="Path 13" class="cls-3" d="M298.222,402.145A13.536,13.536,0,0,0,301.6,396.7h2.354a15.675,15.675,0,0,1-4.141,7.04,15.963,15.963,0,1,1,4.162-15.67H301.6a13.68,13.68,0,0,0-3.378-5.449,13.8,13.8,0,1,0,0,19.527Z" transform="translate(-98.641 -366.729)"/>
      <path id="Path_14" data-name="Path 14" class="cls-3" d="M330.948,381.008a16.066,16.066,0,1,1-27.44,11.356,16.074,16.074,0,0,1,27.44-11.356Zm-1.613,21.119a13.837,13.837,0,1,0-9.764,4.033A13.363,13.363,0,0,0,329.336,402.126Z" transform="translate(-93.109 -366.732)"/>
    </g>
    <g id="Group_40" data-name="Group 40" transform="translate(0.807 48.614)">
      <path id="Path_15" data-name="Path 15" class="cls-3" d="M132.569,419.343a3.331,3.331,0,0,1-3.39,2.85c-2.366,0-3.618-1.644-3.618-4.681,0-2.4,1.118-4.611,3.674-4.611a3.155,3.155,0,0,1,3.317,2.975h-.908a2.378,2.378,0,0,0-2.426-2.166c-1.88,0-2.73,1.615-2.73,3.819,0,2.423.959,3.856,2.729,3.856a2.456,2.456,0,0,0,2.445-2.042Z" transform="translate(-125.561 -408.837)"/>
      <path id="Path_16" data-name="Path 16" class="cls-3" d="M133.947,416.118c0-1.4-.018-2.709-.037-3.038h.872c.02.445.02,1.018.02,1.974a3.17,3.17,0,0,1,3.013-2.152v.961c-2.12.14-3,1.69-3,3.536v4.616h-.873Z" transform="translate(-124.076 -408.837)"/>
      <path id="Path_17" data-name="Path 17" class="cls-3" d="M145.006,420.251a11.144,11.144,0,0,0,.143,1.764h-.85a8.9,8.9,0,0,1-.125-1.578,2.692,2.692,0,0,1-2.834,1.74,2.528,2.528,0,0,1-2.758-2.7c0-1.172.707-2.774,3.973-2.774h1.579v-1.011c0-.925-.25-2-2.073-2a1.943,1.943,0,0,0-2.25,1.844h-.872c.159-1.552,1.034-2.632,3.175-2.632,1.707,0,2.892.768,2.892,2.687Zm-.854-2.78H142.52c-2.532,0-3.012,1.028-3.012,1.985a1.78,1.78,0,0,0,1.915,1.9c1.988,0,2.729-1.349,2.729-3.7Z" transform="translate(-123.246 -408.837)"/>
      <path id="Path_18" data-name="Path 18" class="cls-3" d="M146.242,421.2c1.535-2.082,3.456-4.921,5.18-7.318h-4.9v-.827h5.933v.827c-1.69,2.378-3.419,4.868-5.179,7.281H152.6l-.2.827h-6.165Z" transform="translate(-121.883 -408.81)"/>
      <path id="Path_19" data-name="Path 19" class="cls-3" d="M154.28,413.053c1.612,4.679,2.412,6.91,2.695,8.016h.018c.285-.9,1.072-3.379,2.608-8.016h.945l-3.179,9.346c-.894,2.615-1.39,3.339-3.014,3.339a4.037,4.037,0,0,1-.684-.055v-.828a4.49,4.49,0,0,0,.735.053c1.292,0,1.581-1.112,2.145-2.735l-3.233-9.12Z" transform="translate(-120.625 -408.81)"/>
      <path id="Path_20" data-name="Path 20" class="cls-3" d="M166.908,419.543a2.183,2.183,0,0,0,2.323,1.862c1.5,0,2.02-.881,2.02-1.768,0-.956-.6-1.5-2.225-1.93-2.046-.539-2.634-1.31-2.634-2.456,0-1.214.872-2.35,2.731-2.35A2.562,2.562,0,0,1,172,415.373h-.873a1.875,1.875,0,0,0-2.038-1.7c-1.254,0-1.787.635-1.787,1.519,0,.8.323,1.239,1.975,1.683,2.17.59,2.886,1.291,2.886,2.7,0,1.544-1.171,2.6-2.966,2.6a2.868,2.868,0,0,1-3.177-2.634Z" transform="translate(-118.366 -408.837)"/>
      <path id="Path_21" data-name="Path 21" class="cls-3" d="M173.731,409.587h.874v1.726h-.874Zm0,4.082h.874V422.6h-.874Z" transform="translate(-116.995 -409.427)"/>
      <path id="Path_22" data-name="Path 22" class="cls-3" d="M177.616,415.867c0-1.471-.018-2.393-.035-2.787h.872c.019.216.054,1.117.037,1.4a2.645,2.645,0,0,1,2.519-1.582,2.175,2.175,0,0,1,2.32,1.64,2.759,2.759,0,0,1,2.629-1.64c1.257,0,2.562.629,2.562,3v6.109h-.873v-5.943c0-1.276-.39-2.324-1.862-2.324-1.6,0-2.271,1.415-2.271,2.913v5.354h-.855v-6.033c0-1.292-.5-2.234-1.812-2.234-1.419,0-2.358,1.185-2.358,3.089v5.178h-.873Z" transform="translate(-116.31 -408.837)"/>
      <path id="Path_23" data-name="Path 23" class="cls-3" d="M190.889,420.741v4.881h-.874v-9.881c0-1.232,0-2.124-.035-2.661h.873c.018.32.035,1.081.037,1.616a3.013,3.013,0,0,1,2.922-1.8c2,0,3.309,1.622,3.309,4.47,0,3.071-1.575,4.788-3.632,4.788A2.676,2.676,0,0,1,190.889,420.741Zm5.3-3.317c0-2.3-.942-3.694-2.609-3.694-2.111,0-2.731,1.572-2.731,3.853,0,2.135.358,3.748,2.625,3.748C195.147,421.331,196.192,419.894,196.192,417.424Z" transform="translate(-114.105 -408.837)"/>
      <path id="Path_24" data-name="Path 24" class="cls-3" d="M198.62,422.6V409.587h.873V422.6Z" transform="translate(-112.568 -409.427)"/>
      <path id="Path_25" data-name="Path 25" class="cls-3" d="M202.851,417.664c-.016,2.244.971,3.72,2.713,3.72a2.413,2.413,0,0,0,2.392-1.754h.874a3.2,3.2,0,0,1-3.338,2.563c-2.755,0-3.55-2.366-3.55-4.7,0-2.181,1.057-4.595,3.623-4.595,2.67,0,3.424,2.214,3.424,4.119v.644Zm5.247-.768c-.053-1.856-.8-3.187-2.57-3.187-2.056,0-2.536,1.946-2.641,3.187Z" transform="translate(-111.978 -408.837)"/>
      <path id="Path_26" data-name="Path 26" class="cls-3" d="M215.323,422.629v-8.142h-1.477v-.793h1.477v-1.311c0-1.472.369-2.932,2.211-2.932a2.1,2.1,0,0,1,.739.108v.828a2.937,2.937,0,0,0-.8-.088c-.9,0-1.276.6-1.276,1.927v1.468h1.8v.793h-1.8v8.142Z" transform="translate(-109.861 -409.451)"/>
      <path id="Path_27" data-name="Path 27" class="cls-3" d="M226.134,417.387c0,2.575-1.059,4.771-3.8,4.771-2.551,0-3.658-2.252-3.658-4.735,0-2.426,1.3-4.523,3.766-4.523C224.742,412.9,226.134,414.713,226.134,417.387Zm-6.531.052c0,2.157.959,3.91,2.821,3.91,2,0,2.767-1.7,2.767-3.961,0-2.049-.94-3.677-2.8-3.677C220.544,413.711,219.6,415.289,219.6,417.439Z" transform="translate(-109.002 -408.837)"/>
      <path id="Path_28" data-name="Path 28" class="cls-3" d="M227.592,416.118c0-1.4-.018-2.709-.035-3.038h.872c.019.445.019,1.018.019,1.974a3.17,3.17,0,0,1,3.013-2.152v.961c-2.12.14-2.994,1.69-2.994,3.536v4.616h-.874Z" transform="translate(-107.422 -408.837)"/>
      <path id="Path_29" data-name="Path 29" class="cls-3" d="M232.884,415.867c0-1.471-.019-2.393-.037-2.787h.873c.018.216.053,1.117.037,1.4a2.644,2.644,0,0,1,2.519-1.582,2.176,2.176,0,0,1,2.32,1.64,2.758,2.758,0,0,1,2.629-1.64c1.257,0,2.562.629,2.562,3v6.109h-.873v-5.943c0-1.276-.391-2.324-1.863-2.324-1.6,0-2.271,1.415-2.271,2.913v5.354h-.855v-6.033c0-1.292-.5-2.234-1.81-2.234-1.42,0-2.358,1.185-2.358,3.089v5.178h-.873Z" transform="translate(-106.482 -408.837)"/>
      <path id="Path_30" data-name="Path 30" class="cls-3" d="M245.321,419.543a2.182,2.182,0,0,0,2.323,1.862c1.5,0,2.02-.881,2.02-1.768,0-.956-.605-1.5-2.226-1.93-2.045-.539-2.634-1.31-2.634-2.456,0-1.214.873-2.35,2.731-2.35a2.563,2.563,0,0,1,2.874,2.472h-.873a1.876,1.876,0,0,0-2.039-1.7c-1.254,0-1.786.635-1.786,1.519,0,.8.323,1.239,1.975,1.683,2.17.59,2.885,1.291,2.885,2.7,0,1.544-1.171,2.6-2.965,2.6a2.868,2.868,0,0,1-3.177-2.634Z" transform="translate(-104.421 -408.837)"/>
    </g>
  </g>
</svg>
