<svg xmlns="http://www.w3.org/2000/svg" viewBox="0 0 281.67 46.73"><defs><style>.cls-1{fill:#231f20;}</style></defs><title>Wordmark plain</title><g id="Layer_2" data-name="Layer 2"><g id="Layer_2-2" data-name="Layer 2"><path class="cls-1" d="M157,43.8v2.54s-7.05.88-8.17-5.23a24.21,24.21,0,0,1-.36-5.61V0H151V35.38s-.07,3.27,0,3.81C151.73,44.66,157,43.8,157,43.8Z"/><path class="cls-1" d="M2.83,13.82a16.67,16.67,0,0,0-.27,2.68l0,29.81L0,46.29V16.5A17.26,17.26,0,0,1,4.39,4.83,13.43,13.43,0,0,1,14.72,0h.17V2.61h-.17A10.89,10.89,0,0,0,6.2,6.86a14.35,14.35,0,0,0-2.66,4.39H14.89v2.57Z"/><path class="cls-1" d="M36.51,10.72A17.37,17.37,0,0,1,49.23,16a17.31,17.31,0,0,1,5.25,12.72A17.31,17.31,0,0,1,49.2,41.43,17.3,17.3,0,0,1,36.48,46.7a17.33,17.33,0,0,1-12.72-5.27,17.34,17.34,0,0,1-5.27-12.72A17.43,17.43,0,0,1,23.79,16,17.34,17.34,0,0,1,36.51,10.72Zm0,33.45A15.43,15.43,0,0,0,51.94,28.71a15,15,0,0,0-4.52-10.94,15,15,0,0,0-10.94-4.51,14.93,14.93,0,0,0-10.93,4.51A15,15,0,0,0,21,28.71a15,15,0,0,0,4.52,10.94A14.93,14.93,0,0,0,36.48,44.17Z"/><path class="cls-1" d="M79.71,13.38c-.51-.05-1-.07-1.57-.07a14.37,14.37,0,0,0-14.4,14.42V46.26H61.05V27.73A16.51,16.51,0,0,1,66,15.6a16.49,16.49,0,0,1,12.08-5c.54,0,1.07,0,1.59.07Z"/><path class="cls-1" d="M136.48,46.29H134V23.85a10.27,10.27,0,0,0-3.22-7.44,10.85,10.85,0,0,0-15.19,0,10.27,10.27,0,0,0-3.22,7.44V46.29h-2.47V23.85a10.27,10.27,0,0,0-3.22-7.44,10.82,10.82,0,0,0-15.16,0,10.17,10.17,0,0,0-3.23,7.44V46.29H85.87V23.85a12.65,12.65,0,0,1,3.95-9.18,12.87,12.87,0,0,1,9.31-3.78,13.24,13.24,0,0,1,12.06,7.64A12.84,12.84,0,0,1,116,13a13.08,13.08,0,0,1,7.22-2.12,12.9,12.9,0,0,1,9.35,3.78,12.64,12.64,0,0,1,3.91,9.26Z"/><path class="cls-1" d="M181,10.72A17.34,17.34,0,0,1,193.69,16a17.23,17.23,0,0,1,5.25,12.72,17.34,17.34,0,0,1-5.27,12.72,18,18,0,0,1-25.44,0A17.31,17.31,0,0,1,163,28.71,17.47,17.47,0,0,1,168.25,16,17.37,17.37,0,0,1,181,10.72Zm0,33.45A15.43,15.43,0,0,0,196.4,28.71a14.93,14.93,0,0,0-4.52-10.94,15.51,15.51,0,0,0-21.87,0,15,15,0,0,0-4.52,10.94A15.43,15.43,0,0,0,181,44.17Z"/><path class="cls-1" d="M233.57,39.67a15,15,0,0,0,3.78-6.1H240a17.46,17.46,0,0,1-4.64,7.89,18,18,0,0,1-25.44,0,17.43,17.43,0,0,1-5.27-12.72A17.29,17.29,0,0,1,210,16a17.94,17.94,0,0,1,25.42,0A17.15,17.15,0,0,1,240,23.9h-2.66a15.22,15.22,0,0,0-3.78-6.1,15.45,15.45,0,0,0-26.39,10.94,15.46,15.46,0,0,0,26.39,10.93Z"/><path class="cls-1" d="M263.71,10.72A17.37,17.37,0,0,1,276.43,16a17.26,17.26,0,0,1,5.24,12.72,17.3,17.3,0,0,1-5.27,12.72,18,18,0,0,1-25.44,0,17.34,17.34,0,0,1-5.27-12.72A17.4,17.4,0,0,1,251,16,17.34,17.34,0,0,1,263.71,10.72Zm0,33.45a15.43,15.43,0,0,0,15.46-15.46,15,15,0,0,0-4.52-10.94,15.45,15.45,0,0,0-26.39,10.94,15.42,15.42,0,0,0,15.45,15.46Z"/></g></g></svg>