<svg xmlns="http://www.w3.org/2000/svg" xmlns:xlink="http://www.w3.org/1999/xlink" width="380" height="67" viewBox="0 0 380 67">
  <defs>
    <style>
      .cls-1 {
        fill: #157afb;
      }

      .cls-2, .cls-3 {
        fill: #fff;
      }

      .cls-2 {
        font-size: 16px;
        font-family: Muli-Bold, Muli;
        font-weight: 700;
      }

      .cls-4 {
        fill: #4285f4;
      }

      .cls-5 {
        fill: #34a853;
      }

      .cls-6 {
        fill: #fbbc04;
      }

      .cls-7 {
        fill: #ea4335;
      }

      .cls-8 {
        filter: url(#Rectangle_6);
      }
    </style>
    <filter id="Rectangle_6" x="0" y="0" width="380" height="67" filterUnits="userSpaceOnUse">
      <feOffset dy="2" input="SourceAlpha"/>
      <feGaussianBlur stdDeviation="3" result="blur"/>
      <feFlood flood-opacity="0.235"/>
      <feComposite operator="in" in2="blur"/>
      <feComposite in="SourceGraphic"/>
    </filter>
  </defs>
  <g id="Component_34_1" data-name="Component 34 – 1" transform="translate(9 7)">
    <g id="Group_3" data-name="Group 3">
      <g class="cls-8" transform="matrix(1, 0, 0, 1, -9, -7)">
        <rect id="Rectangle_6-2" data-name="Rectangle 6" class="cls-1" width="362" height="49" rx="5" transform="translate(9 7)"/>
      </g>
      <text id="Sign_in_with_Google" data-name="Sign in with Google" class="cls-2" transform="translate(179 30)"><tspan x="-74.384" y="0">Sign in with Google</tspan></text>
    </g>
    <circle id="Ellipse_11" data-name="Ellipse 11" class="cls-3" cx="10" cy="10" r="10" transform="translate(14 15)"/>
    <g id="Google__G__Logo" transform="translate(16.489 17.193)">
      <path id="Path_2" data-name="Path 2" class="cls-4" d="M279.281,224.619a8.792,8.792,0,0,0-.129-1.519H272.1v2.879h4.039a3.461,3.461,0,0,1-1.495,2.272v1.868h2.409A7.3,7.3,0,0,0,279.281,224.619Z" transform="translate(-264.623 -216.97)"/>
      <path id="Path_3" data-name="Path 3" class="cls-5" d="M35.581,330.344a7.157,7.157,0,0,0,4.956-1.8l-2.409-1.868a4.535,4.535,0,0,1-6.742-2.371H28.9v1.926A7.478,7.478,0,0,0,35.581,330.344Z" transform="translate(-28.105 -315.39)"/>
      <path id="Path_4" data-name="Path 4" class="cls-6" d="M3.229,154.789a4.478,4.478,0,0,1,0-2.863V150H.745a7.483,7.483,0,0,0,0,6.714Z" transform="translate(0.05 -145.879)"/>
      <path id="Path_5" data-name="Path 5" class="cls-7" d="M35.581,2.941A4.063,4.063,0,0,1,38.45,4.062h0l2.135-2.135a7.186,7.186,0,0,0-5-1.945A7.475,7.475,0,0,0,28.9,4.1l2.484,1.926A4.472,4.472,0,0,1,35.581,2.941Z" transform="translate(-28.105 0.018)"/>
    </g>
  </g>
</svg>
